<?xml version="1.0" encoding="UTF-8"?>
<svg id="Layer_2" data-name="Layer 2" xmlns="http://www.w3.org/2000/svg" viewBox="0 0 834.72 144">
  <defs>
    <style>
      .cls-1 {
        fill: #222;
      }

      .cls-1, .cls-2 {
        stroke-width: 0px;
      }

      .cls-2 {
        fill: #b31b1b;
      }
    </style>
  </defs>
  <g id="Layer_1-2" data-name="Layer 1">
    <g>
      <g>
        <path class="cls-2" d="M72,144C32.3,144,0,111.7,0,72S32.3,0,72,0s72.01,32.3,72.01,72-32.3,72.01-72.01,72.01ZM72,3.36C34.15,3.36,3.36,34.15,3.36,72s30.79,68.64,68.63,68.64,68.64-30.79,68.64-68.64S109.84,3.36,72,3.36Z"/>
        <path class="cls-2" d="M72,126.08c-29.82,0-54.07-24.26-54.07-54.08s24.26-54.08,54.07-54.08,54.08,24.26,54.08,54.08-24.26,54.08-54.08,54.08ZM72,21.26c-27.97,0-50.73,22.76-50.73,50.74s22.76,50.74,50.73,50.74,50.74-22.76,50.74-50.74-22.76-50.74-50.74-50.74Z"/>
        <path class="cls-2" d="M72.02,122.5l-.67-.29c-1.38-.59-33.75-14.78-33.75-40.48v-46.17s68.73,0,68.73,0v47c0,24.64-32.28,39.06-33.65,39.66l-.67.29ZM40.97,38.92v42.81c0,21.56,26.46,34.93,31.04,37.08,4.58-2.18,30.97-15.67,30.97-36.27v-43.63s-62.01,0-62.01,0Z"/>
        <path class="cls-2" d="M56.84,62.6l-.82-.48c-.15-.09-3.66-2.15-6.02-3.73-1.99-1.33-3.01-2.75-3.12-4.32-.02-.33-.02-6.61-.02-11.82v-1.68h20.12v1.68c.02,7.59.02,11.56,0,11.81-.05,1.6-1.02,3.02-2.97,4.33-2.38,1.59-6.17,3.67-6.33,3.75l-.83.45ZM50.22,43.94c0,4.26,0,9.52.01,9.91.02.32.46.96,1.64,1.74,1.6,1.07,3.84,2.42,5.03,3.13,1.25-.7,3.63-2.06,5.24-3.13.44-.29,1.46-1.04,1.48-1.64.02-.51.01-5.77,0-10.02h-13.4Z"/>
        <path class="cls-2" d="M87.92,62.52l-.82-.48c-.15-.09-3.66-2.14-6.02-3.72-1.99-1.34-3.02-2.75-3.13-4.32-.02-.26-.03-4.23-.02-11.82v-1.68h20.12v1.68c.02,7.59.02,11.56,0,11.81-.04,1.59-1.01,3.01-2.96,4.32-2.38,1.59-6.18,3.66-6.34,3.75l-.83.45ZM81.3,43.86c0,4.25,0,9.5.01,9.91.02.33.47.96,1.64,1.75,1.6,1.07,3.83,2.42,5.02,3.13,1.25-.7,3.64-2.05,5.24-3.13.44-.29,1.46-1.04,1.47-1.63.02-.52.01-5.77,0-10.03h-13.4Z"/>
        <rect class="cls-2" x="37.87" y="63.79" width="67.27" height="3.33"/>
        <path class="cls-2" d="M71.91,104.73c-1.13,0-1.78-.8-2.13-1.23-.38-.47-.55-.6-1.19-.62-1.83,0-3.17.12-4.72.26-1.52.14-3.25.3-5.7.35-2.43.07-4.31-.04-4.39-.05l-1.59-.09v-31.51s1.65-.04,1.65-.04c.5-.01,1.07-.01,1.74,0,.98,0,2.17,0,3.67-.03,1.15-.03,2.49-.17,4.04-.34.9-.1,1.87-.2,2.91-.29,2.17-.25,4.14.16,4.22.18.6.14,1.11.33,1.54.55.42-.21.92-.4,1.51-.54.12-.03,2.09-.43,4.3-.18,1.01.09,1.98.19,2.89.29,1.55.17,2.89.31,4.02.34,1.51.04,2.7.03,3.67.03.68,0,1.25,0,1.74,0l1.64.04v31.51s-1.58.09-1.58.09c-.08,0-1.97.11-4.39.05-2.45-.05-4.18-.21-5.7-.35-1.55-.14-2.9-.26-4.72-.26-.74.01-.92.19-1.34.67-.38.44-1.02,1.17-2.11,1.17ZM68.6,99.53h.1c1.66,0,2.64.73,3.24,1.34.62-.62,1.62-1.33,3.32-1.34,2.06,0,3.54.13,5.13.28,1.54.14,3.13.28,5.47.34.96.02,1.84.02,2.54,0v-24.98c-.21,0-.43,0-.66,0-.87,0-1.9,0-3.12-.03-1.28-.03-2.68-.18-4.3-.35-.89-.09-1.84-.2-2.87-.29-1.7-.19-3.22.11-3.24.12-.88.2-1.15.57-1.16.58l-.99-.53-1.03.6s0,0,0,0c0,0-.37-.44-1.32-.66h0s-1.52-.3-3.16-.11c-1.06.09-2.01.2-2.89.29-1.63.17-3.03.32-4.32.35-1.54.04-2.76.03-3.76.03,0,0-.01,0-.02,0v24.98c.69.01,1.57.02,2.54,0,2.34-.05,3.93-.2,5.47-.34,1.57-.14,3.05-.28,5.03-.28Z"/>
        <rect class="cls-2" x="48.54" y="47.15" width="16.63" height="2.8"/>
        <rect class="cls-2" x="48.54" y="46.87" width="16.63" height="3.36"/>
        <rect class="cls-2" x="70.46" y="64.38" width="2.8" height="56.57"/>
        <rect class="cls-2" x="70.6" y="64.38" width="2.52" height="56.57"/>
        <polygon class="cls-2" points="95.08 53.22 87.7 48.3 80.92 53.19 79.28 50.92 87.63 44.89 96.64 50.89 95.08 53.22"/>
        <polygon class="cls-2" points="95.16 53.45 87.94 48.64 81.32 53.42 79.35 50.69 87.86 44.55 97.03 50.66 95.16 53.45"/>
        <path class="cls-2" d="M85.24,80.23l-4.24-.11c-.67-.02-1.44-.1-2.33-.19l-1.44-.15c-.27-.03-.52-.03-.74-.02l-.06-1.77c.31-.01.64,0,.98.03l1.45.15c.83.09,1.56.17,2.19.18l4.23.11-.04,1.77Z"/>
        <path class="cls-2" d="M85.24,85.62l-4.23-.11c-.67-.02-1.44-.1-2.32-.19-.45-.05-.93-.1-1.45-.15-.27-.03-.52-.04-.74-.03l-.06-1.77c.3,0,.64,0,.98.04.52.05,1.01.1,1.47.15.83.09,1.54.17,2.17.18l4.23.11-.04,1.77Z"/>
        <path class="cls-2" d="M85.24,91.02c-.37,0-1.26-.03-2.22-.05l-2.02-.05c-.65-.01-1.4-.09-2.27-.18-.46-.05-.96-.1-1.5-.15-.27-.03-.53-.04-.75-.03l-.06-1.77c.3,0,.64,0,.98.04.53.05,1.04.1,1.52.15.8.09,1.5.16,2.12.17l2.04.05c.94.03,1.83.05,2.19.06l-.03,1.77Z"/>
        <path class="cls-2" d="M85.24,96.42c-.65-.01-2.9-.07-4.24-.11-.66-.02-1.43-.1-2.31-.19-.45-.05-.93-.1-1.45-.15-.27-.03-.52-.04-.74-.03l-.06-1.77c.3,0,.64,0,.98.04.52.05,1.01.1,1.47.15.83.09,1.54.17,2.17.18,1.34.04,3.59.1,4.23.11l-.04,1.77Z"/>
        <path class="cls-2" d="M58.63,80.19l-.04-1.77,4.23-.11c.65-.01,1.39-.09,2.25-.18l1.4-.14c.31-.04.63-.05.91-.04l-.04,1.77c-.2,0-.45,0-.69.03l-1.4.14c-.92.1-1.71.18-2.4.19l-4.23.11Z"/>
        <path class="cls-2" d="M58.63,85.58l-.04-1.77,4.23-.11c.64-.02,1.37-.1,2.22-.19l1.43-.15c.33-.03.64-.03.92-.03l-.06,1.77c-.22,0-.46,0-.7.02l-1.4.14c-.9.1-1.68.18-2.37.2l-4.24.11Z"/>
        <path class="cls-2" d="M58.63,90.97l-.03-1.77c.54,0,2.23-.05,3.55-.09l.68-.02c.63,0,1.34-.08,2.15-.17.47-.05.97-.1,1.51-.15.3-.03.62-.05.9-.03l-.03,1.77c-.21,0-.45,0-.69.03-.55.05-1.04.1-1.49.15-.88.09-1.64.17-2.3.18l-.67.02c-1.32.04-3.02.08-3.57.09Z"/>
        <path class="cls-2" d="M58.63,96.38l-.03-1.77c.54,0,2.23-.05,3.55-.09l.68-.02c.64-.02,1.37-.1,2.22-.19l1.43-.15c.3-.03.61-.05.9-.03l-.03,1.77c-.22,0-.45,0-.69.03l-1.42.15c-.9.1-1.68.18-2.37.2l-.67.02c-1.32.04-3.02.08-3.57.09Z"/>
        <g>
          <rect class="cls-2" x="48.89" y="76.34" width="3.66" height="4.02"/>
          <rect class="cls-2" x="48.89" y="85.64" width="3.86" height="4.02"/>
          <rect class="cls-2" x="48.89" y="93.96" width="3.66" height="4.01"/>
          <rect class="cls-2" x="91.04" y="77.13" width="3.66" height="4.01"/>
          <rect class="cls-2" x="91.04" y="86.43" width="3.86" height="4.02"/>
          <rect class="cls-2" x="91.04" y="94.74" width="3.66" height="4.02"/>
          <g>
            <path class="cls-2" d="M15.48,65.08c.12.71.22,1.47.17,2.2-.19,3.09-1.9,5.14-5.17,4.93-3.31-.21-5.05-2.32-4.84-5.56.04-.63.22-1.46.54-2.14l1.63.24c-.46.7-.6,1.35-.64,2.03-.12,1.97,1.32,3.29,3.31,3.42,1.97.13,3.53-.99,3.65-3.02.05-.75-.06-1.65-.27-2.12l1.63.02Z"/>
            <path class="cls-2" d="M7.91,54.51c.82-2.89,3.25-3.94,6.08-3.14,2.82.8,4.4,2.98,3.57,5.88-.84,2.95-3.27,3.95-6.13,3.13-2.86-.82-4.35-2.95-3.51-5.88ZM16.08,56.84c.54-1.88-.96-3.07-2.65-3.54-1.65-.47-3.54-.2-4.06,1.64-.52,1.83.95,3.06,2.6,3.53,1.68.48,3.58.27,4.12-1.62Z"/>
            <path class="cls-2" d="M11.76,44.48l.97-1.82c.96-1.82,2.05-4.01,4.43-2.75,1,.54,1.48,1.65,1.06,2.8l.02.02c.28-.44.89-.46,1.36-.43l4.07.43-1,1.89-3.21-.41c-.77-.1-1.13-.01-1.51.7l-.29.55,3.55,1.9-.9,1.7-8.56-4.56ZM16.31,44.74l.3-.56c.45-.83.83-1.86-.24-2.42-1.03-.55-1.62.35-2.07,1.19l-.3.56,2.31,1.23Z"/>
            <path class="cls-2" d="M18.31,33.41l1.51-1.81,7.91,1.82.02-.02-5.58-4.63,1.17-1.42,7.47,6.19-1.49,1.8-7.92-1.81-.02.02,5.58,4.63-1.17,1.41-7.46-6.19Z"/>
            <path class="cls-2" d="M28.03,22.87l4.37-3.56.97,1.18-2.89,2.35,1.51,1.86,2.65-2.16.96,1.18-2.65,2.16,1.72,2.11,2.91-2.37.96,1.18-4.4,3.58-6.12-7.52Z"/>
            <path class="cls-2" d="M37.54,15.88l1.67-.95,4.01,7.12,3.23-1.82.75,1.33-4.91,2.76-4.75-8.45Z"/>
            <path class="cls-2" d="M47.39,10.94l1.8-.65,2.78,7.68,3.49-1.26.52,1.43-5.3,1.92-3.3-9.12Z"/>
            <path class="cls-2" d="M62.85,6.72l1.91-.16.46,5.58c.14,1.64.75,2.69,2.21,2.56,1.46-.12,1.89-1.25,1.75-2.89l-.46-5.59,1.91-.16.51,6.18c.22,2.59-1.14,3.78-3.59,3.98-2.44.2-3.98-.75-4.19-3.33l-.51-6.18Z"/>
            <path class="cls-2" d="M77.22,6.23l2.34.32,2.64,7.68h.03s.97-7.19.97-7.19l1.82.25-1.3,9.61-2.32-.31-2.66-7.68h-.03s-.97,7.18-.97,7.18l-1.82-.24,1.29-9.61Z"/>
            <path class="cls-2" d="M90.96,8.87l1.83.57-2.9,9.25-1.83-.58,2.9-9.25Z"/>
            <path class="cls-2" d="M97.78,11.16l1.84.93-1.25,7.9h.03s5.6-5.69,5.6-5.69l1.7.86-7.25,7.2-2.1-1.06,1.44-10.14Z"/>
            <path class="cls-2" d="M110.36,18.32l4.45,3.48-.94,1.2-2.94-2.29-1.47,1.88,2.68,2.1-.94,1.21-2.69-2.1-1.68,2.15,2.96,2.31-.94,1.2-4.47-3.49,5.97-7.64Z"/>
            <path class="cls-2" d="M119.29,25.99l1.36,1.55c1.36,1.55,3.02,3.34,1,5.13-.86.75-2.06.8-3,0h-.02c.31.43.12,1.01-.08,1.44l-1.84,3.66-1.41-1.61,1.52-2.86c.36-.68.41-1.05-.12-1.65l-.4-.46-3.03,2.65-1.27-1.44,7.29-6.39ZM117.44,30.16l.41.47c.62.71,1.44,1.43,2.35.63.88-.77.24-1.64-.39-2.36l-.42-.47-1.96,1.72Z"/>
            <path class="cls-2" d="M128.34,41.37c-.08-.65-.29-1.31-.63-1.89-.34-.57-1.02-1.15-1.93-.61-1.45.86,1.3,4.11-1.5,5.76-1.83,1.08-3.37.06-4.35-1.6-.53-.9-.65-1.37-.93-2.3l1.6-.74c.03.75.21,1.52.59,2.17.37.63,1.19,1.27,1.94.82,1.6-.94-1.2-4.16,1.56-5.79,1.86-1.1,3.39-.08,4.25,1.37.42.71.71,1.42.87,2.14l-1.46.66Z"/>
            <path class="cls-2" d="M132.59,46.2l.73,1.78-8.98,3.66-.72-1.77,8.98-3.67Z"/>
            <path class="cls-2" d="M134.26,55.8l-.66-2.66,1.49-.36,1.77,7.19-1.48.36-.66-2.66-7.93,1.95-.46-1.86,7.93-1.95Z"/>
            <path class="cls-2" d="M131.93,68.29l5.66-3.81.13,2.24-3.94,2.48,4.2,2.08.11,2.03-6.04-3.1-3.83.21-.1-1.92,3.83-.21Z"/>
            <path class="cls-2" d="M16.99,85.06l1.49,5.16-1.47.43-.95-3.3-2.29.66.9,3.14-1.47.43-.9-3.14-4.09,1.18-.54-1.86,9.32-2.69Z"/>
            <path class="cls-2" d="M21.53,96.95c1.34,2.72.25,5.16-2.39,6.45-2.63,1.3-5.26.72-6.61-2.03-1.37-2.78-.23-5.16,2.44-6.47,2.67-1.31,5.2-.7,6.56,2.05ZM13.9,100.7c.87,1.78,2.78,1.66,4.35.89,1.54-.75,2.76-2.23,1.91-3.96-.84-1.72-2.76-1.66-4.3-.91-1.57.77-2.83,2.21-1.96,3.98Z"/>
            <path class="cls-2" d="M25.66,104.58l1.21,1.52-4.38,3.48c-1.3,1.03-1.82,2.11-.89,3.27.92,1.17,2.1.9,3.39-.13l4.38-3.48,1.21,1.52-4.85,3.85c-2.03,1.62-3.78,1.14-5.33-.8-1.54-1.94-1.62-3.77.42-5.38l4.85-3.85Z"/>
            <path class="cls-2" d="M33.61,113.87l1.85,1.51-1.74,7.94h.02s4.59-5.59,4.59-5.59l1.44,1.17-6.14,7.51-1.83-1.5,1.73-7.96h-.02s-4.59,5.59-4.59,5.59l-1.44-1.17,6.14-7.5Z"/>
            <path class="cls-2" d="M43.45,121.28l2.37,1.19c2.64,1.33,4.54,3.4,2.81,6.84-1.72,3.44-4.52,3.15-7.16,1.82l-2.36-1.18,4.35-8.67ZM41.51,129.45l.97.49c1.45.72,3.39.35,4.34-1.54.95-1.88.1-3.67-1.35-4.4l-.97-.49-2.98,5.94Z"/>
            <path class="cls-2" d="M54.66,126.27l5.51,1.47-.39,1.47-3.64-.97-.61,2.31,3.33.89-.39,1.47-3.33-.89-.7,2.63,3.67.98-.39,1.48-5.54-1.48,2.5-9.37Z"/>
            <path class="cls-2" d="M64.44,128.5l2.64.15c2.96.16,5.51,1.31,5.3,5.15-.22,3.84-2.89,4.69-5.85,4.53l-2.64-.15.55-9.69ZM65.91,136.77l1.08.06c1.62.09,3.25-1.03,3.37-3.14.12-2.11-1.38-3.4-2.99-3.49l-1.08-.06-.38,6.63Z"/>
            <path class="cls-2" d="M82.23,127.8l2.14-.46,5.75,8.68-2.1.46-1.28-2-3.83.83-.36,2.35-1.96.42,1.64-10.27ZM83.68,129.48h-.03s-.53,4.21-.53,4.21l2.76-.59-2.21-3.62Z"/>
            <path class="cls-2" d="M92.28,133.1l1.82-.66.66,1.83-1.82.66-.66-1.83Z"/>
            <path class="cls-2" d="M94.74,123.92l2.32-1.26c2.61-1.42,5.38-1.78,7.22,1.6,1.83,3.39,0,5.51-2.6,6.92l-2.33,1.26-4.62-8.52ZM100.34,130.17l.95-.51c1.42-.78,2.22-2.58,1.22-4.44-1.01-1.86-2.96-2.18-4.38-1.4l-.95.51,3.17,5.83Z"/>
            <path class="cls-2" d="M107.09,125.72l1.6-1.11,1.11,1.6-1.59,1.11-1.11-1.6Z"/>
            <path class="cls-2" d="M111.09,112.45l1.22-1.2,6.81,6.91-1.38,1.36-5.26-5.33-.23,2.09-1.58-.22.41-3.61Z"/>
            <path class="cls-2" d="M119.78,109.67c-.93.52-1.95.56-2.77-.04-1.39-1.03-1.27-2.58-.23-3.99,1.01-1.37,2.49-2.18,3.8-1.22.71.53,1.2,1.56.91,2.67h.01c1.24-.66,2.26-.63,3.15.03,1.58,1.16,1.43,2.81.29,4.35-1.12,1.51-2.69,2.25-4.27,1.08-.87-.64-1.11-1.58-.88-2.85l-.02-.02ZM120.24,107.82c.16-.55,0-1.35-.49-1.7-.58-.44-1.26-.36-1.69.23-.42.57-.53,1.36.1,1.83.67.49,1.49.03,2.08-.36ZM123.78,110.61c.47-.62.43-1.4-.21-1.88-.77-.57-1.63-.18-2.32.3-.14.76-.11,1.45.55,1.94.65.48,1.52.26,1.98-.36Z"/>
            <path class="cls-2" d="M124.96,95.56c-.43.36-.81.75-1.1,1.33-.74,1.49.39,2.7,1.66,3.4l.04-.02c-.39-.71-.4-1.37-.04-2.11.82-1.63,2.31-2.01,3.91-1.21,1.88.94,2.66,2.48,1.69,4.43-1.2,2.41-3.47,1.94-5.51.92-2.36-1.17-4.56-3.22-3.16-6.02.31-.63.71-1.18,1.22-1.67l1.29.93ZM127.69,101.18c.82.41,1.71.42,2.14-.43.41-.8-.21-1.53-.98-1.91-.85-.42-1.8-.47-2.22.37-.42.84.19,1.55,1.06,1.98Z"/>
            <path class="cls-2" d="M128.2,85.22l-1.06,3.58,1.97.63c.02-.23.05-.52.16-.87.39-1.3,1.5-2.81,3.91-2.09,1.74.52,2.79,2.16,2.08,4.55-.21.72-.58,1.52-.91,2.09l-1.65-.54c.32-.39.79-.95,1.03-1.75.29-.97.14-2.12-1.05-2.47-1.2-.36-1.93.58-2.24,1.64-.17.57-.25,1.14-.24,1.74l-4.97-1.58,1.58-5.32,1.38.41Z"/>
          </g>
        </g>
      </g>
      <rect class="cls-1" x="179.18" y="0" width="2" height="144"/>
      <g>
        <path class="cls-1" d="M665.65,82.66h-8.8c-.4,0-.75-.26-.88-.64l-14.54-45.35c-.19-.59.25-1.2.88-1.2h8.8c.4,0,.75.26.88.64l14.54,45.35c.19.59-.25,1.2-.88,1.2Z"/>
        <path class="cls-1" d="M688.38,82.66h-8.8c-.4,0-.75-.26-.88-.64l-14.54-45.35c-.19-.59.25-1.2.88-1.2h8.8c.4,0,.75.26.88.64l14.54,45.35c.19.59-.25,1.2-.88,1.2Z"/>
        <path class="cls-1" d="M696.77,36.11c-.12-.38-.48-.64-.88-.64h-8.8c-.62,0-1.06.6-.88,1.19l8.15,25.41c.27.85,1.48.85,1.75,0l4.31-13.44c.12-.37.12-.76,0-1.13l-3.65-11.4Z"/>
        <path class="cls-1" d="M558.77,82.66h-28.1c-.62,0-1.25-.52-1.25-1.24V13.39c0-.73.62-1.35,1.25-1.35h22.29c5.5,0,11.41.73,16.28,4.15,4.25,2.9,7.26,7.47,7.26,13.79,0,7.57-3.52,12.75-9.23,15.35v.41c10.06,1.97,15.04,8.61,15.04,17.94,0,13.17-11.72,18.98-23.54,18.98ZM560.43,23.44c-2.07-1.35-4.67-1.97-7.36-1.97h-12.03v20.64h10.99c2.7,0,5.6-.21,7.88-1.35,2.8-1.45,4.88-4.36,4.88-8.92,0-4.04-1.76-6.74-4.36-8.4ZM564.89,53.1c-2.49-1.35-5.81-1.66-11.1-1.66h-12.75v21.78h15.24c2.9,0,5.6-.31,7.88-1.24,3.73-1.56,6.33-4.56,6.33-9.75,0-3.84-1.76-7.26-5.6-9.13Z"/>
        <path class="cls-1" d="M595.9,41.38c4.56-4.25,10.89-6.84,17.94-6.84s13.38,2.59,17.94,6.84c4.56,4.36,7.26,10.47,7.26,17.73s-2.59,13.58-7.26,17.84c-4.46,4.25-10.99,6.74-17.94,6.74s-13.48-2.49-17.94-6.74c-4.67-4.25-7.36-10.47-7.36-17.84s2.8-13.38,7.36-17.73ZM603.16,70.21c2.59,2.8,6.33,4.56,10.68,4.56s7.98-1.76,10.58-4.56c2.59-2.9,4.15-6.64,4.15-11.1s-1.56-8.19-4.15-11.1c-2.59-2.8-6.33-4.56-10.58-4.56s-8.09,1.76-10.68,4.56c-2.59,2.9-4.05,6.64-4.05,11.1s1.45,8.19,4.05,11.1Z"/>
        <path class="cls-1" d="M745.36,71.56c.93-.52,1.56-.21,1.87.31l2.8,5.18c.42.62.1,1.24-.52,1.66-3.84,2.7-10.68,4.98-17.84,4.98-7.88,0-14.31-2.59-18.67-7.26-4.15-4.36-6.53-10.58-6.53-17.94,0-6.84,2.49-12.86,6.64-17.21,3.94-4.15,9.75-6.64,17.21-6.64,8.09,0,14.1,3.01,17.73,7.78,3.42,4.46,4.87,10.99,4.46,18.15-.1.83-.62,1.45-1.45,1.45h-33.39c.31,3.73,1.56,6.53,3.53,8.71,2.59,3.01,6.53,4.56,11.2,4.56,5.08,0,9.33-1.56,12.96-3.73ZM742.25,54.87c-.21-3.32-1.14-5.91-3.11-8.09-1.97-2.18-4.98-3.63-8.92-3.63s-7.36,1.45-9.44,3.84c-1.76,2.07-2.9,4.87-3.11,7.88h24.58Z"/>
        <path class="cls-1" d="M772.05,59.84v21.57c0,.73-.52,1.24-1.24,1.24h-8.09c-.73,0-1.35-.52-1.35-1.24v-44.7c0-.62.62-1.24,1.35-1.24h7.67c.73,0,1.35.62,1.35,1.24v4.56h.31c2.9-4.36,6.95-6.64,12.34-6.64,4.46,0,8.4,1.35,11.41,3.84.62.52.83,1.24.52,1.76l-3.01,6.22c-.31.62-1.04.83-1.87.31-2.7-1.66-5.29-2.7-8.71-2.7-8.09,0-10.68,8.4-10.68,15.76Z"/>
        <path class="cls-1" d="M823.72,70.11c0-3.11-2.49-4.46-5.6-5.91-2.9-1.35-7.15-2.49-10.68-4.15-5.08-2.39-7.78-6.22-7.78-12.13,0-8.3,6.43-13.38,17.94-13.38,6.95,0,11.61,1.66,15.03,3.53.83.42.93,1.04.62,1.66l-2.9,5.91c-.42.73-.93.83-1.66.41-3.42-1.87-7.05-2.8-10.47-2.8-4.46,0-7.57,1.35-7.57,4.46,0,2.7,2.28,4.04,5.08,5.29,3.22,1.35,7.26,2.59,10.47,4.15,6.12,3.01,8.5,6.64,8.5,12.03,0,8.61-7.15,14.52-18.67,14.52-7.98,0-13.17-1.97-16.49-4.15-.62-.41-.83-.93-.52-1.56l2.9-5.91c.31-.73.93-.93,1.66-.52,3.73,2.39,7.78,3.84,11.93,3.84,4.77,0,8.19-1.66,8.19-5.29Z"/>
        <g>
          <path class="cls-2" d="M215.83,47.3c0-20.22,16.59-36.19,37.33-36.19,9.96,0,16.59,2.59,21.47,5.29.83.41,1.04,1.14.62,1.76l-3.63,7.57c-.31.83-1.04.83-1.66.52-4.36-2.28-9.54-4.67-17.11-4.67-13.48,0-24.99,11.41-24.99,25.72,0,15.35,11.3,25.92,25.09,25.92,7.47,0,13.07-2.28,17.42-4.77.73-.42,1.24-.31,1.66.42l3.63,7.78c.31.73.21,1.24-.62,1.66-5.39,2.9-12.03,5.39-22.19,5.39-21.88,0-37.02-14.21-37.02-36.4Z"/>
          <path class="cls-2" d="M286.65,41.39c4.56-4.25,10.89-6.84,17.94-6.84s13.38,2.59,17.94,6.84c4.56,4.36,7.26,10.47,7.26,17.73s-2.59,13.58-7.26,17.84c-4.46,4.25-10.99,6.74-17.94,6.74s-13.48-2.49-17.94-6.74c-4.67-4.25-7.36-10.47-7.36-17.84s2.8-13.38,7.36-17.73ZM293.9,70.21c2.59,2.8,6.33,4.56,10.68,4.56s7.98-1.76,10.58-4.56c2.59-2.9,4.15-6.64,4.15-11.1s-1.56-8.19-4.15-11.1c-2.59-2.8-6.33-4.56-10.58-4.56s-8.09,1.76-10.68,4.56c-2.59,2.9-4.05,6.64-4.05,11.1s1.45,8.19,4.05,11.1Z"/>
          <path class="cls-2" d="M348.11,59.84v21.57c0,.73-.52,1.24-1.24,1.24h-8.09c-.73,0-1.35-.52-1.35-1.24v-44.7c0-.62.62-1.24,1.35-1.24h7.67c.73,0,1.35.62,1.35,1.24v4.56h.31c2.9-4.36,6.95-6.64,12.34-6.64,4.46,0,8.4,1.35,11.41,3.84.62.52.83,1.24.52,1.76l-3.01,6.22c-.31.62-1.04.83-1.87.31-2.7-1.66-5.29-2.7-8.71-2.7-8.09,0-10.68,8.4-10.68,15.76Z"/>
          <path class="cls-2" d="M422.87,81.41c0,.73-.52,1.24-1.24,1.24h-8.19c-.73,0-1.24-.52-1.24-1.24v-24.47c0-4.25-.62-8.09-3.01-10.58-1.66-1.66-4.05-2.7-7.57-2.7-4.77,0-8.5,2.18-10.79,6.22-1.76,3.21-2.49,7.15-2.49,10.99v20.53c0,.73-.52,1.24-1.24,1.24h-8.09c-.73,0-1.35-.52-1.35-1.24v-44.7c0-.62.62-1.24,1.35-1.24h7.67c.73,0,1.35.62,1.35,1.24v5.08h.31c3.42-4.77,8.81-7.26,15.35-7.26,5.39,0,10.27,1.35,13.69,4.46,3.53,3.11,5.5,8.19,5.5,15.35v27.07Z"/>
          <path class="cls-2" d="M469.1,71.56c.93-.52,1.56-.21,1.87.31l2.8,5.18c.42.62.1,1.24-.52,1.66-3.84,2.7-10.68,4.98-17.84,4.98-7.88,0-14.31-2.59-18.67-7.26-4.15-4.36-6.53-10.58-6.53-17.94,0-6.84,2.49-12.86,6.64-17.21,3.94-4.15,9.75-6.64,17.21-6.64,8.09,0,14.1,3.01,17.73,7.78,3.42,4.46,4.87,10.99,4.46,18.15-.1.83-.62,1.45-1.45,1.45h-33.39c.31,3.73,1.56,6.53,3.53,8.71,2.59,3.01,6.53,4.56,11.2,4.56,5.08,0,9.33-1.56,12.96-3.73ZM465.99,54.87c-.21-3.32-1.14-5.91-3.11-8.09-1.97-2.18-4.98-3.63-8.92-3.63s-7.36,1.45-9.44,3.84c-1.76,2.07-2.9,4.87-3.11,7.88h24.58Z"/>
          <path class="cls-2" d="M486.46,12.04h8.09c.73,0,1.24.62,1.24,1.35v68.03c0,.73-.52,1.24-1.24,1.24h-8.09c-.73,0-1.35-.52-1.35-1.24V13.39c0-.73.62-1.35,1.35-1.35Z"/>
          <path class="cls-2" d="M508.66,12.04h8.09c.73,0,1.24.62,1.24,1.35v68.03c0,.73-.52,1.24-1.24,1.24h-8.09c-.73,0-1.35-.52-1.35-1.24V13.39c0-.73.62-1.35,1.35-1.35Z"/>
        </g>
      </g>
      <g>
        <path class="cls-1" d="M219.19,117.43c0-6.25,5.21-11.37,11.59-11.37,3.16,0,5.24.88,6.77,1.76.23.13.29.29.2.49l-.78,1.63c-.1.23-.29.2-.46.1-1.34-.75-3.13-1.63-5.8-1.63-4.79,0-8.83,4.1-8.83,9.02,0,5.41,4.07,9.09,8.86,9.09,2.64,0,4.53-.85,5.86-1.66.2-.13.33-.1.46.1l.78,1.69c.07.16.03.29-.16.42-1.66.94-3.75,1.79-6.97,1.79-6.58,0-11.53-4.49-11.53-11.43Z"/>
        <path class="cls-1" d="M242.14,115.77c1.4-1.4,3.39-2.21,5.6-2.21s4.2.81,5.6,2.21c1.37,1.34,2.18,3.22,2.18,5.44s-.81,4.1-2.18,5.44c-1.4,1.4-3.39,2.21-5.6,2.21s-4.2-.81-5.6-2.21c-1.37-1.34-2.18-3.22-2.18-5.44s.81-4.1,2.18-5.44ZM243.77,125.18c.94,1.07,2.34,1.73,3.97,1.73s3.03-.65,3.97-1.73c.94-1.01,1.47-2.41,1.47-3.97s-.52-2.96-1.47-3.97c-.94-1.07-2.34-1.73-3.97-1.73s-3.03.65-3.97,1.73c-.94,1.01-1.47,2.41-1.47,3.97s.52,2.96,1.47,3.97Z"/>
        <path class="cls-1" d="M259.5,106.36h1.76c.16,0,.29.16.29.33v21.56c0,.16-.13.29-.29.29h-1.76c-.16,0-.33-.13-.33-.29v-21.56c0-.16.16-.33.33-.33Z"/>
        <path class="cls-1" d="M266.36,106.36h1.76c.16,0,.29.16.29.33v21.56c0,.16-.13.29-.29.29h-1.76c-.16,0-.33-.13-.33-.29v-21.56c0-.16.16-.33.33-.33Z"/>
        <path class="cls-1" d="M284.44,125.6c.26-.16.42-.07.49.07l.62,1.2c.1.16.03.29-.13.42-1.2.81-3.32,1.56-5.6,1.56-2.44,0-4.46-.85-5.8-2.38-1.24-1.37-1.92-3.26-1.92-5.47,0-2.08.72-3.97,1.95-5.31s3.03-2.15,5.37-2.15,4.2.94,5.34,2.34c1.07,1.37,1.66,3.29,1.53,5.6,0,.23-.16.36-.39.36h-11.33c.1,1.24.52,2.38,1.27,3.26.94,1.14,2.38,1.79,4.17,1.79s3.22-.59,4.43-1.3ZM284.02,120.13c-.07-1.34-.49-2.44-1.2-3.26-.75-.81-1.92-1.4-3.39-1.4-1.63,0-2.87.59-3.68,1.53-.68.81-1.11,1.95-1.17,3.13h9.44Z"/>
        <path class="cls-1" d="M299.09,132.9c.75-.85,1.11-2.05,1.11-3.65v-1.89c-1.34,1.11-2.74,1.47-4.4,1.47-2.08,0-3.65-.78-4.75-2.02-1.27-1.43-1.92-3.45-1.92-5.63s.59-4.14,1.86-5.6c1.11-1.24,2.7-2.02,4.79-2.02s3.45.78,4.4,1.53h.1v-.94c0-.16.13-.33.29-.33h1.69c.2,0,.33.16.33.33v14.85c0,2.34-.59,4.17-1.86,5.41-1.14,1.14-2.87,1.69-5.08,1.69s-4.07-.68-5.37-1.56c-.16-.1-.23-.23-.13-.39l.65-1.3c.1-.16.26-.23.49-.07,1.2.81,2.64,1.4,4.4,1.4,1.56,0,2.7-.46,3.42-1.27ZM300.2,125.28v-8.08c-.85-.68-2.08-1.69-4.14-1.69-1.43,0-2.54.59-3.26,1.5-.88,1.07-1.27,2.57-1.27,4.14,0,1.66.39,3.19,1.24,4.23.75.91,1.79,1.47,3.26,1.47,1.73,0,3.06-.62,4.17-1.56Z"/>
        <path class="cls-1" d="M318.63,125.6c.26-.16.42-.07.49.07l.62,1.2c.1.16.03.29-.13.42-1.2.81-3.32,1.56-5.6,1.56-2.44,0-4.46-.85-5.8-2.38-1.24-1.37-1.92-3.26-1.92-5.47,0-2.08.72-3.97,1.95-5.31s3.03-2.15,5.37-2.15,4.2.94,5.34,2.34c1.07,1.37,1.66,3.29,1.53,5.6,0,.23-.16.36-.39.36h-11.33c.1,1.24.52,2.38,1.27,3.26.94,1.14,2.38,1.79,4.17,1.79s3.22-.59,4.43-1.3ZM318.21,120.13c-.07-1.34-.49-2.44-1.2-3.26-.75-.81-1.92-1.4-3.39-1.4-1.63,0-2.87.59-3.68,1.53-.68.81-1.11,1.95-1.17,3.13h9.44Z"/>
        <path class="cls-1" d="M333.81,115.77c1.4-1.4,3.39-2.21,5.6-2.21s4.2.81,5.6,2.21c1.37,1.34,2.18,3.22,2.18,5.44s-.81,4.1-2.18,5.44c-1.4,1.4-3.39,2.21-5.6,2.21s-4.2-.81-5.6-2.21c-1.37-1.34-2.18-3.22-2.18-5.44s.81-4.1,2.18-5.44ZM335.43,125.18c.94,1.07,2.34,1.73,3.97,1.73s3.03-.65,3.97-1.73c.94-1.01,1.47-2.41,1.47-3.97s-.52-2.96-1.47-3.97c-.94-1.07-2.34-1.73-3.97-1.73s-3.03.65-3.97,1.73c-.94,1.01-1.47,2.41-1.47,3.97s.52,2.96,1.47,3.97Z"/>
        <path class="cls-1" d="M354.33,108.9c-.52.62-.68,1.6-.68,2.83v2.08h4.4c.16,0,.29.16.29.33v1.27c0,.16-.13.29-.29.29h-4.4v12.54c0,.16-.13.29-.33.29h-1.76c-.16,0-.29-.13-.29-.29v-12.54h-1.89c-.16,0-.33-.13-.33-.29v-1.27c0-.16.16-.33.33-.33h1.89v-2.31c0-1.69.33-3.26,1.3-4.27.72-.72,1.76-1.14,3.19-1.14,1.79,0,3.35.59,4.36,1.37.16.1.2.29.13.42l-.59,1.2c-.1.2-.33.23-.52.1-.91-.72-1.86-1.07-2.9-1.07-.88,0-1.5.26-1.92.78Z"/>
        <path class="cls-1" d="M369.01,117.43c0-6.25,5.21-11.37,11.59-11.37,3.16,0,5.24.88,6.77,1.76.23.13.29.29.2.49l-.78,1.63c-.1.23-.29.2-.46.1-1.34-.75-3.13-1.63-5.8-1.63-4.79,0-8.83,4.1-8.83,9.02,0,5.41,4.07,9.09,8.86,9.09,2.64,0,4.53-.85,5.86-1.66.2-.13.33-.1.46.1l.78,1.69c.07.16.03.29-.16.42-1.66.94-3.75,1.79-6.97,1.79-6.58,0-11.53-4.49-11.53-11.43Z"/>
        <path class="cls-1" d="M391.96,115.77c1.4-1.4,3.39-2.21,5.6-2.21s4.2.81,5.6,2.21c1.37,1.34,2.18,3.22,2.18,5.44s-.81,4.1-2.18,5.44c-1.4,1.4-3.39,2.21-5.6,2.21s-4.2-.81-5.6-2.21c-1.37-1.34-2.18-3.22-2.18-5.44s.81-4.1,2.18-5.44ZM393.59,125.18c.94,1.07,2.34,1.73,3.97,1.73s3.03-.65,3.97-1.73c.94-1.01,1.47-2.41,1.47-3.97s-.52-2.96-1.47-3.97c-.94-1.07-2.34-1.73-3.97-1.73s-3.03.65-3.97,1.73c-.94,1.01-1.47,2.41-1.47,3.97s.52,2.96,1.47,3.97Z"/>
        <path class="cls-1" d="M411.41,115.57c.98-1.3,2.44-2.02,4.3-2.02,1.24,0,2.41.29,3.32.98.72.52,1.24,1.2,1.56,2.08.36-.78.94-1.63,1.95-2.28.88-.55,1.95-.78,3.03-.78,1.53,0,2.96.39,4.01,1.43.94.91,1.56,2.34,1.56,4.49v8.76c0,.16-.13.29-.29.29h-1.79c-.16,0-.33-.13-.33-.29v-8.17c0-1.5-.33-2.7-.98-3.42-.62-.68-1.53-1.01-2.67-1.01-1.2,0-2.28.46-2.96,1.56-.62,1.04-.85,2.38-.85,4.04v7c0,.16-.13.29-.29.29h-1.79c-.16,0-.33-.13-.33-.29v-8.17c0-1.5-.33-2.7-.98-3.42-.62-.68-1.53-1.01-2.67-1.01-1.2,0-2.28.46-2.96,1.56-.52.88-.85,2.18-.85,3.71v7.33c0,.16-.13.29-.29.29h-1.79c-.16,0-.33-.13-.33-.29v-14.1c0-.16.16-.33.33-.33h1.66c.16,0,.33.16.33.33v1.43h.1Z"/>
        <path class="cls-1" d="M440.28,113.56c2.54,0,4.75.68,6.32,2.12,1.37,1.27,2.25,3.13,2.25,5.5s-.72,4.17-1.86,5.37c-1.5,1.66-3.71,2.31-5.6,2.31-1.4,0-2.38-.16-3.45-.65v7.56c0,.16-.13.29-.29.29h-1.76c-.16,0-.33-.13-.33-.29v-21.4c0-.2.1-.36.36-.42,1.17-.23,2.8-.39,4.36-.39ZM437.93,126.22c.98.49,1.86.68,3.22.68,1.24,0,2.74-.39,3.84-1.5.91-.88,1.47-2.31,1.47-4.23,0-1.76-.55-3.13-1.56-4.1-1.07-1.04-2.61-1.6-4.4-1.6-.85,0-1.79.1-2.57.2v10.55Z"/>
        <path class="cls-1" d="M452.32,114.14c0-.16.13-.33.29-.33h1.76c.2,0,.33.16.33.33v7.95c0,1.3.16,2.08.59,2.87.62,1.04,1.86,1.79,3.81,1.79s3.22-.72,3.78-1.76c.46-.78.59-1.6.59-2.9v-7.95c0-.16.16-.33.33-.33h1.76c.16,0,.29.16.29.33v8.17c0,1.89-.33,3.06-1.07,4.17-1.04,1.53-3.03,2.38-5.67,2.38s-4.66-.85-5.7-2.38c-.75-1.11-1.07-2.28-1.07-4.17v-8.17Z"/>
        <path class="cls-1" d="M473.07,123.36c0,1.01.13,1.82.49,2.38.42.72,1.14,1.07,2.31,1.07.88,0,1.73-.23,2.67-.91.23-.16.39-.13.49.03l.59,1.27c.1.16.03.29-.13.42-1.14.81-2.64,1.24-4.2,1.24-1.76,0-2.9-.55-3.61-1.43-.75-.94-1.01-2.31-1.01-3.78v-7.95h-1.73c-.16,0-.33-.13-.33-.29v-1.27c0-.16.16-.33.33-.33h1.73v-2.83c0-.16.16-.33.33-.33h1.76c.16,0,.33.16.33.33v2.83h5.11c.16,0,.33.16.33.33v1.27c0,.16-.16.29-.33.29h-5.11v7.65Z"/>
        <path class="cls-1" d="M481.85,106.81c0-.78.65-1.4,1.43-1.4s1.43.62,1.43,1.4-.65,1.43-1.43,1.43-1.43-.62-1.43-1.43ZM482.43,113.82h1.76c.16,0,.29.16.29.33v14.1c0,.16-.13.29-.29.29h-1.76c-.16,0-.33-.13-.33-.29v-14.1c0-.16.16-.33.33-.33Z"/>
        <path class="cls-1" d="M491.41,116.32c1.01-1.92,2.96-2.77,5.15-2.77,1.76,0,3.22.42,4.27,1.34,1.14,1.01,1.76,2.64,1.76,4.92v8.43c0,.16-.16.29-.33.29h-1.73c-.16,0-.33-.13-.33-.29v-7.91c0-1.63-.33-2.93-1.2-3.75-.65-.62-1.56-.94-2.9-.94-1.69,0-3.03.75-3.84,2.25-.62,1.17-.85,2.57-.85,3.88v6.48c0,.16-.13.29-.29.29h-1.79c-.16,0-.33-.13-.33-.29v-14.1c0-.16.16-.33.33-.33h1.66c.16,0,.33.16.33.33v2.18h.1Z"/>
        <path class="cls-1" d="M516.1,132.9c.75-.85,1.11-2.05,1.11-3.65v-1.89c-1.34,1.11-2.74,1.47-4.4,1.47-2.08,0-3.65-.78-4.75-2.02-1.27-1.43-1.92-3.45-1.92-5.63s.59-4.14,1.86-5.6c1.11-1.24,2.7-2.02,4.79-2.02s3.45.78,4.4,1.53h.1v-.94c0-.16.13-.33.29-.33h1.69c.2,0,.33.16.33.33v14.85c0,2.34-.59,4.17-1.86,5.41-1.14,1.14-2.87,1.69-5.08,1.69s-4.07-.68-5.37-1.56c-.16-.1-.23-.23-.13-.39l.65-1.3c.1-.16.26-.23.49-.07,1.2.81,2.64,1.4,4.4,1.4,1.56,0,2.7-.46,3.42-1.27ZM517.2,125.28v-8.08c-.85-.68-2.08-1.69-4.14-1.69-1.43,0-2.54.59-3.26,1.5-.88,1.07-1.27,2.57-1.27,4.14,0,1.66.39,3.19,1.24,4.23.75.91,1.79,1.47,3.26,1.47,1.73,0,3.06-.62,4.17-1.56Z"/>
        <path class="cls-1" d="M540.42,115.93h6.45c.16,0,.29.13.29.29v1.63c0,.16-.13.33-.29.33h-6.45v6.42c0,.16-.13.33-.29.33h-1.63c-.16,0-.33-.16-.33-.33v-6.42h-6.42c-.16,0-.29-.16-.29-.33v-1.63c0-.16.13-.29.29-.29h6.42v-6.42c0-.16.16-.33.33-.33h1.63c.16,0,.29.16.29.33v6.42Z"/>
        <path class="cls-1" d="M561.42,106.36c.16,0,.33.16.33.33v21.56c0,.16-.16.29-.33.29h-1.99c-.16,0-.29-.13-.29-.29v-21.56c0-.16.13-.33.29-.33h1.99Z"/>
        <path class="cls-1" d="M569.01,116.32c1.01-1.92,2.96-2.77,5.15-2.77,1.76,0,3.22.42,4.27,1.34,1.14,1.01,1.76,2.64,1.76,4.92v8.43c0,.16-.16.29-.33.29h-1.73c-.16,0-.33-.13-.33-.29v-7.91c0-1.63-.33-2.93-1.2-3.75-.65-.62-1.56-.94-2.9-.94-1.69,0-3.03.75-3.84,2.25-.62,1.17-.85,2.57-.85,3.88v6.48c0,.16-.13.29-.29.29h-1.79c-.16,0-.33-.13-.33-.29v-14.1c0-.16.16-.33.33-.33h1.66c.16,0,.33.16.33.33v2.18h.1Z"/>
        <path class="cls-1" d="M588.11,108.9c-.52.62-.68,1.6-.68,2.83v2.08h4.4c.16,0,.29.16.29.33v1.27c0,.16-.13.29-.29.29h-4.4v12.54c0,.16-.13.29-.33.29h-1.76c-.16,0-.29-.13-.29-.29v-12.54h-1.89c-.16,0-.33-.13-.33-.29v-1.27c0-.16.16-.33.33-.33h1.89v-2.31c0-1.69.33-3.26,1.3-4.27.72-.72,1.76-1.14,3.19-1.14,1.79,0,3.35.59,4.36,1.37.16.1.2.29.13.42l-.59,1.2c-.1.2-.33.23-.52.1-.91-.72-1.86-1.07-2.9-1.07-.88,0-1.5.26-1.92.78Z"/>
        <path class="cls-1" d="M595.94,115.77c1.4-1.4,3.39-2.21,5.6-2.21s4.2.81,5.6,2.21c1.37,1.34,2.18,3.22,2.18,5.44s-.81,4.1-2.18,5.44c-1.4,1.4-3.39,2.21-5.6,2.21s-4.2-.81-5.6-2.21c-1.37-1.34-2.18-3.22-2.18-5.44s.81-4.1,2.18-5.44ZM597.57,125.18c.94,1.07,2.34,1.73,3.97,1.73s3.03-.65,3.97-1.73c.94-1.01,1.47-2.41,1.47-3.97s-.52-2.96-1.47-3.97c-.94-1.07-2.34-1.73-3.97-1.73s-3.03.65-3.97,1.73c-.94,1.01-1.47,2.41-1.47,3.97s.52,2.96,1.47,3.97Z"/>
        <path class="cls-1" d="M616.49,117.04c-.81,1.11-1.11,2.87-1.11,4.3v6.9c0,.16-.13.29-.29.29h-1.79c-.16,0-.33-.13-.33-.29v-14.1c0-.16.16-.33.33-.33h1.66c.16,0,.33.16.33.33v1.79h.1c.75-1.56,2.18-2.38,4.14-2.38,1.43,0,2.57.42,3.52,1.17.16.13.2.26.1.42l-.72,1.47c-.1.16-.29.2-.49.07-.78-.55-1.66-.94-2.8-.94-1.07,0-1.99.42-2.64,1.3Z"/>
        <path class="cls-1" d="M628.02,115.57c.98-1.3,2.44-2.02,4.3-2.02,1.24,0,2.41.29,3.32.98.72.52,1.24,1.2,1.56,2.08.36-.78.94-1.63,1.95-2.28.88-.55,1.95-.78,3.03-.78,1.53,0,2.96.39,4.01,1.43.94.91,1.56,2.34,1.56,4.49v8.76c0,.16-.13.29-.29.29h-1.79c-.16,0-.33-.13-.33-.29v-8.17c0-1.5-.33-2.7-.98-3.42-.62-.68-1.53-1.01-2.67-1.01-1.2,0-2.28.46-2.96,1.56-.62,1.04-.85,2.38-.85,4.04v7c0,.16-.13.29-.29.29h-1.79c-.16,0-.33-.13-.33-.29v-8.17c0-1.5-.33-2.7-.98-3.42-.62-.68-1.53-1.01-2.67-1.01-1.2,0-2.28.46-2.96,1.56-.52.88-.85,2.18-.85,3.71v7.33c0,.16-.13.29-.29.29h-1.79c-.16,0-.33-.13-.33-.29v-14.1c0-.16.16-.33.33-.33h1.66c.16,0,.33.16.33.33v1.43h.1Z"/>
        <path class="cls-1" d="M652.84,116.81c-.23.13-.39.07-.46-.1l-.55-1.2c-.1-.2-.07-.29.16-.42,1.5-1.01,3.58-1.53,5.6-1.53,1.4,0,3.13.26,4.3,1.6.75.85,1.2,2.08,1.2,3.97v9.12c0,.16-.13.29-.29.29h-1.53c-.16,0-.29-.13-.29-.29v-.52h-.13c-1.5.88-2.8,1.14-4.43,1.14-1.34,0-2.64-.33-3.65-1.04-.98-.72-1.66-1.79-1.66-3.29,0-2.02,1.24-3.16,3.03-3.84,1.99-.75,4.62-.94,6.58-1.04v-.49c0-1.3-.23-2.08-.75-2.7-.65-.75-1.69-.98-2.67-.98-1.86,0-3.22.62-4.46,1.34ZM660.72,126.03v-4.59c-1.53.07-3.35.16-4.85.59-1.4.36-2.48,1.07-2.48,2.38,0,1.82,1.89,2.57,3.71,2.57,1.24,0,2.48-.36,3.61-.94Z"/>
        <path class="cls-1" d="M670.09,123.36c0,1.01.13,1.82.49,2.38.42.72,1.14,1.07,2.31,1.07.88,0,1.73-.23,2.67-.91.23-.16.39-.13.49.03l.59,1.27c.1.16.03.29-.13.42-1.14.81-2.64,1.24-4.2,1.24-1.76,0-2.9-.55-3.61-1.43-.75-.94-1.01-2.31-1.01-3.78v-7.95h-1.73c-.16,0-.33-.13-.33-.29v-1.27c0-.16.16-.33.33-.33h1.73v-2.83c0-.16.16-.33.33-.33h1.76c.16,0,.33.16.33.33v2.83h5.11c.16,0,.33.16.33.33v1.27c0,.16-.16.29-.33.29h-5.11v7.65Z"/>
        <path class="cls-1" d="M678.86,106.81c0-.78.65-1.4,1.43-1.4s1.43.62,1.43,1.4-.65,1.43-1.43,1.43-1.43-.62-1.43-1.43ZM679.44,113.82h1.76c.16,0,.29.16.29.33v14.1c0,.16-.13.29-.29.29h-1.76c-.16,0-.33-.13-.33-.29v-14.1c0-.16.16-.33.33-.33Z"/>
        <path class="cls-1" d="M687.27,115.77c1.4-1.4,3.39-2.21,5.6-2.21s4.2.81,5.6,2.21c1.37,1.34,2.18,3.22,2.18,5.44s-.81,4.1-2.18,5.44c-1.4,1.4-3.39,2.21-5.6,2.21s-4.2-.81-5.6-2.21c-1.37-1.34-2.18-3.22-2.18-5.44s.81-4.1,2.18-5.44ZM688.89,125.18c.94,1.07,2.34,1.73,3.97,1.73s3.03-.65,3.97-1.73c.94-1.01,1.47-2.41,1.47-3.97s-.52-2.96-1.47-3.97c-.94-1.07-2.34-1.73-3.97-1.73s-3.03.65-3.97,1.73c-.94,1.01-1.47,2.41-1.47,3.97s.52,2.96,1.47,3.97Z"/>
        <path class="cls-1" d="M706.71,116.32c1.01-1.92,2.96-2.77,5.15-2.77,1.76,0,3.22.42,4.27,1.34,1.14,1.01,1.76,2.64,1.76,4.92v8.43c0,.16-.16.29-.33.29h-1.73c-.16,0-.33-.13-.33-.29v-7.91c0-1.63-.33-2.93-1.2-3.75-.65-.62-1.56-.94-2.9-.94-1.69,0-3.03.75-3.84,2.25-.62,1.17-.85,2.57-.85,3.88v6.48c0,.16-.13.29-.29.29h-1.79c-.16,0-.33-.13-.33-.29v-14.1c0-.16.16-.33.33-.33h1.66c.16,0,.33.16.33.33v2.18h.1Z"/>
        <path class="cls-1" d="M729.76,126.74c-.2-.1-.26-.26-.16-.46l.81-1.66c.07-.16.2-.23.42-.1,1.37.88,3.39,2.12,6.35,2.12,1.56,0,2.8-.39,3.65-1.01.98-.75,1.47-1.86,1.47-3.13,0-1.69-1.2-2.7-2.83-3.39-1.92-.85-4.1-1.14-6.42-2.28-1.92-.94-3.32-2.34-3.32-4.82,0-1.76.65-3.22,1.92-4.27,1.34-1.07,3.32-1.69,5.96-1.69s4.95.72,6.45,1.56c.2.13.23.26.13.46l-.78,1.63c-.1.2-.26.26-.46.13-1.63-.94-3.61-1.53-5.47-1.53s-3.16.42-3.97,1.17c-.68.62-1.04,1.43-1.04,2.44,0,1.63,1.27,2.54,3.22,3.26,2.21.81,4.49,1.11,6.55,2.31,1.53.88,2.9,2.38,2.9,4.79,0,2.15-.88,3.81-2.34,4.95-1.37,1.07-3.32,1.63-5.57,1.63-3.45,0-5.89-1.11-7.46-2.12Z"/>
        <path class="cls-1" d="M759.49,125.96c.23-.16.42-.1.49.07l.65,1.2c.1.16,0,.29-.16.42-1.17.78-2.87,1.2-4.59,1.2-2.48,0-4.53-.78-5.89-2.21-1.3-1.3-2.02-3.19-2.02-5.44,0-1.95.62-3.61,1.66-4.85,1.5-1.82,3.78-2.8,6.29-2.8,1.73,0,3.32.49,4.49,1.3.16.13.26.26.16.42l-.68,1.24c-.1.2-.26.23-.49.1-1.14-.72-2.25-1.01-3.48-1.01-1.69,0-3.22.65-4.23,1.86-.81.94-1.3,2.21-1.3,3.75,0,1.69.55,3.09,1.5,4.1s2.34,1.56,4.07,1.56c1.24,0,2.41-.23,3.55-.91Z"/>
        <path class="cls-1" d="M763.55,106.81c0-.78.65-1.4,1.43-1.4s1.43.62,1.43,1.4-.65,1.43-1.43,1.43-1.43-.62-1.43-1.43ZM764.13,113.82h1.76c.16,0,.29.16.29.33v14.1c0,.16-.13.29-.29.29h-1.76c-.16,0-.33-.13-.33-.29v-14.1c0-.16.16-.33.33-.33Z"/>
        <path class="cls-1" d="M782.18,125.6c.26-.16.42-.07.49.07l.62,1.2c.1.16.03.29-.13.42-1.2.81-3.32,1.56-5.6,1.56-2.44,0-4.46-.85-5.8-2.38-1.24-1.37-1.92-3.26-1.92-5.47,0-2.08.72-3.97,1.95-5.31s3.03-2.15,5.37-2.15,4.2.94,5.34,2.34c1.07,1.37,1.66,3.29,1.53,5.6,0,.23-.16.36-.39.36h-11.33c.1,1.24.52,2.38,1.27,3.26.94,1.14,2.38,1.79,4.17,1.79s3.22-.59,4.43-1.3ZM781.76,120.13c-.07-1.34-.49-2.44-1.2-3.26-.75-.81-1.92-1.4-3.39-1.4-1.63,0-2.87.59-3.68,1.53-.68.81-1.11,1.95-1.17,3.13h9.44Z"/>
        <path class="cls-1" d="M790.09,116.32c1.01-1.92,2.96-2.77,5.15-2.77,1.76,0,3.22.42,4.27,1.34,1.14,1.01,1.76,2.64,1.76,4.92v8.43c0,.16-.16.29-.33.29h-1.73c-.16,0-.33-.13-.33-.29v-7.91c0-1.63-.33-2.93-1.2-3.75-.65-.62-1.56-.94-2.9-.94-1.69,0-3.03.75-3.84,2.25-.62,1.17-.85,2.57-.85,3.88v6.48c0,.16-.13.29-.29.29h-1.79c-.16,0-.33-.13-.33-.29v-14.1c0-.16.16-.33.33-.33h1.66c.16,0,.33.16.33.33v2.18h.1Z"/>
        <path class="cls-1" d="M816.29,125.96c.23-.16.42-.1.49.07l.65,1.2c.1.16,0,.29-.16.42-1.17.78-2.87,1.2-4.59,1.2-2.48,0-4.53-.78-5.89-2.21-1.3-1.3-2.02-3.19-2.02-5.44,0-1.95.62-3.61,1.66-4.85,1.5-1.82,3.78-2.8,6.29-2.8,1.73,0,3.32.49,4.49,1.3.16.13.26.26.16.42l-.68,1.24c-.1.2-.26.23-.49.1-1.14-.72-2.25-1.01-3.48-1.01-1.69,0-3.22.65-4.23,1.86-.81.94-1.3,2.21-1.3,3.75,0,1.69.55,3.09,1.5,4.1.94,1.01,2.34,1.56,4.07,1.56,1.24,0,2.41-.23,3.55-.91Z"/>
        <path class="cls-1" d="M831.66,125.6c.26-.16.42-.07.49.07l.62,1.2c.1.16.03.29-.13.42-1.2.81-3.32,1.56-5.6,1.56-2.44,0-4.46-.85-5.8-2.38-1.24-1.37-1.92-3.26-1.92-5.47,0-2.08.72-3.97,1.95-5.31s3.03-2.15,5.37-2.15,4.2.94,5.34,2.34c1.07,1.37,1.66,3.29,1.53,5.6,0,.23-.16.36-.39.36h-11.33c.1,1.24.52,2.38,1.27,3.26.94,1.14,2.38,1.79,4.17,1.79s3.22-.59,4.43-1.3ZM831.23,120.13c-.07-1.34-.49-2.44-1.2-3.26-.75-.81-1.92-1.4-3.39-1.4-1.63,0-2.87.59-3.68,1.53-.68.81-1.11,1.95-1.17,3.13h9.44Z"/>
      </g>
    </g>
  </g>
</svg>